<svg width="64" height="24" viewBox="0 0 428.384 47.969" xmlns="http://www.w3.org/2000/svg">
    <g id="svgGroup" stroke-linecap="round" fill-rule="evenodd" stroke="#000" stroke-width="0.25mm" fill="#000"
        style="stroke:#000;stroke-width:0.25mm;fill:#000">
        <path
            d="M 223.68 13.441 L 217.92 14.625 Q 216.48 10.433 213.184 7.937 Q 209.888 5.441 204.96 5.441 Q 199.951 5.409 196.591 7.601 A 11.635 11.635 0 0 0 196.4 7.729 A 13.807 13.807 0 0 0 191.845 12.976 A 17.183 17.183 0 0 0 191.264 14.241 A 22.595 22.595 0 0 0 189.863 19.343 A 30.797 30.797 0 0 0 189.504 23.969 Q 189.489 26.602 189.876 28.927 A 21.393 21.393 0 0 0 191.2 33.633 A 15.168 15.168 0 0 0 193.85 37.929 A 13.68 13.68 0 0 0 196.368 40.145 Q 199.808 42.497 204.96 42.529 Q 209.408 42.561 212.448 40.833 Q 215.488 39.105 217.152 35.841 A 17.581 17.581 0 0 0 218.535 32.064 Q 218.971 30.299 219.146 28.272 A 29.554 29.554 0 0 0 219.168 28.001 L 209.376 28.001 L 209.376 23.297 L 225.184 23.297 Q 225.258 23.787 225.284 24.417 A 16.673 16.673 0 0 1 225.296 24.817 A 210.788 210.788 0 0 1 225.303 25.198 Q 225.312 25.772 225.312 26.017 A 28.974 28.974 0 0 1 224.648 32.34 A 23.575 23.575 0 0 1 222.96 37.297 Q 220.608 42.273 216.016 45.121 A 18.273 18.273 0 0 1 210.167 47.423 Q 207.626 47.969 204.672 47.969 A 23.442 23.442 0 0 1 199.341 47.382 A 19.982 19.982 0 0 1 196.032 46.305 Q 192.128 44.641 189.312 41.521 Q 186.496 38.401 184.976 33.969 A 27.625 27.625 0 0 1 183.712 28.345 A 36.087 36.087 0 0 1 183.456 23.969 A 34.801 34.801 0 0 1 183.958 17.908 A 25.106 25.106 0 0 1 186.08 11.233 Q 188.704 5.857 193.472 2.929 Q 198.24 0.001 204.672 0.001 Q 211.021 0.001 215.348 2.42 A 15.386 15.386 0 0 1 217.152 3.601 Q 221.888 7.201 223.68 13.441 Z M 5.696 47.009 L 0 47.009 L 0 0.929 L 5.696 0.929 L 5.696 22.561 L 25.856 0.929 L 33.024 0.929 L 12.096 23.297 L 34.656 47.009 L 27.296 47.009 L 5.696 24.481 L 5.696 47.009 Z M 56.352 47.009 L 50.656 47.009 L 50.656 0.929 L 56.352 0.929 L 56.352 22.561 L 76.512 0.929 L 83.68 0.929 L 62.752 23.297 L 85.312 47.009 L 77.952 47.009 L 56.352 24.481 L 56.352 47.009 Z M 386.752 47.009 L 357.632 47.009 L 357.632 0.929 L 386.752 0.929 L 386.752 6.337 L 363.328 6.337 L 363.328 20.769 L 382.912 20.769 L 382.912 26.177 L 363.328 26.177 L 363.328 41.601 L 386.752 41.601 L 386.752 47.009 Z M 101.312 30.209 L 101.312 0.961 L 107.072 0.929 L 107.072 29.729 A 16.267 16.267 0 0 0 107.299 32.512 A 11.796 11.796 0 0 0 108.176 35.409 A 12.352 12.352 0 0 0 109.929 38.221 A 10.926 10.926 0 0 0 111.104 39.425 Q 112.928 41.025 115.12 41.809 A 13.14 13.14 0 0 0 118.671 42.565 A 12.128 12.128 0 0 0 119.488 42.593 Q 121.696 42.593 123.904 41.793 Q 126.112 40.993 127.92 39.409 A 11.072 11.072 0 0 0 130.306 36.416 A 13.367 13.367 0 0 0 130.816 35.393 A 12.128 12.128 0 0 0 131.696 32.403 A 16.413 16.413 0 0 0 131.904 29.729 L 131.904 0.929 L 137.664 0.929 L 137.664 30.209 A 20.832 20.832 0 0 1 137.12 35.07 A 16.57 16.57 0 0 1 135.344 39.553 Q 133.024 43.553 128.928 45.761 Q 124.832 47.969 119.488 47.969 Q 114.144 47.969 110.048 45.761 Q 105.952 43.553 103.632 39.569 Q 101.312 35.585 101.312 30.209 Z M 275.424 47.009 L 269.504 47.009 L 284.928 0.929 L 292.864 0.929 L 308.288 47.009 L 302.368 47.009 L 287.936 4.257 L 289.728 4.257 L 275.424 47.009 Z M 328.256 47.009 L 314.048 47.009 L 314.048 0.929 L 328.256 0.929 A 51.458 51.458 0 0 1 328.672 0.931 Q 329.322 0.936 330.448 0.956 A 450.155 450.155 0 0 1 330.72 0.961 Q 332.48 0.993 334.08 1.217 Q 339.424 1.921 343.024 5.105 A 19.391 19.391 0 0 1 347.9 11.841 A 23.228 23.228 0 0 1 348.448 13.185 A 29.113 29.113 0 0 1 350.124 20.691 A 35.463 35.463 0 0 1 350.272 23.969 A 33.119 33.119 0 0 1 349.629 30.611 A 27.775 27.775 0 0 1 348.448 34.753 A 20.854 20.854 0 0 1 345.474 40.204 A 18.66 18.66 0 0 1 343.024 42.833 A 15.715 15.715 0 0 1 336.257 46.313 A 19.993 19.993 0 0 1 334.08 46.721 A 35.325 35.325 0 0 1 331.608 46.926 A 40.891 40.891 0 0 1 330.704 46.961 Q 328.928 47.009 328.256 47.009 Z M 237.408 47.009 L 231.712 47.009 L 231.712 0.929 L 249.92 0.929 A 23.124 23.124 0 0 1 250.46 0.935 Q 250.7 0.941 250.965 0.951 A 43.529 43.529 0 0 1 251.52 0.977 Q 252.448 1.025 253.312 1.185 Q 257.056 1.761 259.6 3.745 Q 262.144 5.729 263.424 8.753 A 16.271 16.271 0 0 1 264.619 13.603 A 19.806 19.806 0 0 1 264.704 15.457 Q 264.704 20.801 261.92 24.721 A 11.707 11.707 0 0 1 255.761 29.133 A 16.087 16.087 0 0 1 253.76 29.633 L 251.584 29.985 L 237.408 29.985 L 237.408 47.009 Z M 400.128 47.009 L 394.432 47.009 L 394.432 0.929 L 412.64 0.929 A 23.124 23.124 0 0 1 413.18 0.935 Q 413.42 0.941 413.685 0.951 A 43.529 43.529 0 0 1 414.24 0.977 Q 415.168 1.025 416.032 1.185 Q 419.776 1.761 422.32 3.745 Q 424.864 5.729 426.144 8.753 A 16.271 16.271 0 0 1 427.339 13.603 A 19.806 19.806 0 0 1 427.424 15.457 Q 427.424 20.801 424.64 24.721 A 11.707 11.707 0 0 1 418.481 29.133 A 16.087 16.087 0 0 1 416.48 29.633 L 414.304 29.985 L 400.128 29.985 L 400.128 47.009 Z M 152.32 47.009 L 146.624 47.009 L 146.624 0.929 L 164.832 0.929 A 23.124 23.124 0 0 1 165.372 0.935 Q 165.612 0.941 165.877 0.951 A 43.529 43.529 0 0 1 166.432 0.977 Q 167.36 1.025 168.224 1.185 Q 171.968 1.761 174.512 3.745 Q 177.056 5.729 178.336 8.753 A 16.271 16.271 0 0 1 179.531 13.603 A 19.806 19.806 0 0 1 179.616 15.457 A 17.842 17.842 0 0 1 179.113 19.76 A 15.407 15.407 0 0 1 178.32 22.129 Q 177.024 25.153 174.48 27.153 Q 171.936 29.153 168.224 29.729 Q 167.36 29.857 166.432 29.921 Q 165.722 29.97 165.161 29.981 A 16.084 16.084 0 0 1 164.832 29.985 L 152.32 29.985 L 152.32 47.009 Z M 319.904 6.369 L 319.904 41.569 L 328.256 41.569 Q 329.472 41.569 330.976 41.489 Q 332.186 41.424 333.148 41.287 A 16.145 16.145 0 0 0 333.6 41.217 Q 337.376 40.513 339.712 38.049 A 14.159 14.159 0 0 0 342.47 33.774 A 17.63 17.63 0 0 0 343.136 31.905 Q 344.224 28.225 344.224 23.969 Q 344.224 19.617 343.12 15.937 Q 342.016 12.257 339.68 9.825 A 10.346 10.346 0 0 0 335.171 7.099 A 13.373 13.373 0 0 0 333.6 6.721 Q 332.65 6.53 331.4 6.456 A 25.097 25.097 0 0 0 330.944 6.433 Q 329.888 6.389 329.013 6.375 A 48.27 48.27 0 0 0 328.256 6.369 L 319.904 6.369 Z M 152.32 6.337 L 152.32 24.577 L 164.64 24.577 Q 165.163 24.577 165.815 24.529 A 23.824 23.824 0 0 0 166.032 24.513 Q 166.816 24.449 167.52 24.289 A 8.562 8.562 0 0 0 169.411 23.622 A 6.703 6.703 0 0 0 171.12 22.417 Q 172.512 21.057 173.152 19.217 Q 173.792 17.377 173.792 15.457 Q 173.792 13.537 173.152 11.697 Q 172.512 9.857 171.12 8.481 A 6.692 6.692 0 0 0 168.728 6.977 A 8.717 8.717 0 0 0 167.52 6.625 A 7.233 7.233 0 0 0 166.251 6.401 A 8.148 8.148 0 0 0 166.032 6.385 A 28.483 28.483 0 0 0 165.38 6.352 Q 165.081 6.34 164.814 6.337 A 16.362 16.362 0 0 0 164.64 6.337 L 152.32 6.337 Z M 237.408 6.337 L 237.408 24.577 L 249.728 24.577 Q 250.251 24.577 250.903 24.529 A 23.824 23.824 0 0 0 251.12 24.513 Q 251.904 24.449 252.608 24.289 A 8.562 8.562 0 0 0 254.499 23.622 A 6.703 6.703 0 0 0 256.208 22.417 Q 257.6 21.057 258.24 19.217 Q 258.88 17.377 258.88 15.457 Q 258.88 13.537 258.24 11.697 Q 257.6 9.857 256.208 8.481 A 6.692 6.692 0 0 0 253.816 6.977 A 8.717 8.717 0 0 0 252.608 6.625 A 7.233 7.233 0 0 0 251.339 6.401 A 8.148 8.148 0 0 0 251.12 6.385 A 28.483 28.483 0 0 0 250.468 6.352 Q 250.169 6.34 249.902 6.337 A 16.362 16.362 0 0 0 249.728 6.337 L 237.408 6.337 Z M 400.128 6.337 L 400.128 24.577 L 412.448 24.577 Q 412.971 24.577 413.623 24.529 A 23.824 23.824 0 0 0 413.84 24.513 Q 414.624 24.449 415.328 24.289 A 8.562 8.562 0 0 0 417.219 23.622 A 6.703 6.703 0 0 0 418.928 22.417 Q 420.32 21.057 420.96 19.217 Q 421.6 17.377 421.6 15.457 Q 421.6 13.537 420.96 11.697 Q 420.32 9.857 418.928 8.481 A 6.692 6.692 0 0 0 416.536 6.977 A 8.717 8.717 0 0 0 415.328 6.625 A 7.233 7.233 0 0 0 414.059 6.401 A 8.148 8.148 0 0 0 413.84 6.385 A 28.483 28.483 0 0 0 413.188 6.352 Q 412.889 6.34 412.622 6.337 A 16.362 16.362 0 0 0 412.448 6.337 L 400.128 6.337 Z M 300.864 36.225 L 276.928 36.225 L 276.928 30.881 L 300.864 30.881 L 300.864 36.225 Z M 265.664 47.009 L 259.136 47.009 L 250.048 28.257 L 255.68 26.529 L 265.664 47.009 Z M 428.384 47.009 L 421.856 47.009 L 412.768 28.257 L 418.4 26.529 L 428.384 47.009 Z"
            vector-effect="non-scaling-stroke" />
    </g>
</svg>